<svg width="39" height="36" viewBox="0 0 39 36" fill="none" xmlns="http://www.w3.org/2000/svg">
<path d="M32.25 3.5H12.75C10.9625 3.5 9.5 4.8125 9.5 6.41667V23.9167C9.5 25.5208 10.9625 26.8333 12.75 26.8333H32.25C34.0375 26.8333 35.5 25.5208 35.5 23.9167V6.41667C35.5 4.8125 34.0375 3.5 32.25 3.5ZM20.0138 21L14.375 15.8958L16.65 13.8396L20.0138 16.8729L28.35 9.33333L30.625 11.3896L20.0138 21ZM6.25 9.33333H3V29.75C3 31.3542 4.4625 32.6667 6.25 32.6667H29V29.75H6.25V9.33333Z" fill="#323232"/>
</svg>
